<svg width="1280" height="720" xmlns="http://www.w3.org/2000/svg" xmlns:xlink="http://www.w3.org/1999/xlink" overflow="hidden"><g><rect x="0" y="0" width="1280" height="720" fill="#FFFFFF"/><text fill="#767676" font-family="Aptos,Aptos_MSFontService,sans-serif" font-weight="400" font-size="16" transform="translate(1173.77 692)">1</text><path d="M557.5 331.5C557.5 304.99 589.512 283.5 629 283.5 668.488 283.5 700.5 304.99 700.5 331.5 700.5 358.01 668.488 379.5 629 379.5 589.512 379.5 557.5 358.01 557.5 331.5Z" stroke="#2B4719" stroke-width="1.33333" stroke-miterlimit="8" fill="#70AD47" fill-rule="evenodd"/><text fill="#FFFFFF" font-family="Calibri,Calibri_MSFontService,sans-serif" font-weight="400" font-size="16" transform="translate(592.155 336)">Blackboard</text><path d="M288.5 240.834C288.5 235.679 292.679 231.5 297.834 231.5L395.167 231.5C400.321 231.5 404.5 235.679 404.5 240.834L404.5 278.167C404.5 283.321 400.321 287.5 395.167 287.5L297.834 287.5C292.679 287.5 288.5 283.321 288.5 278.167Z" stroke="#2B4719" stroke-width="1.33333" stroke-miterlimit="8" fill="#70AD47" fill-rule="evenodd"/><text fill="#FFFFFF" font-family="Calibri,Calibri_MSFontService,sans-serif" font-weight="400" font-size="16" transform="translate(323.217 245)">Drilling</text><text fill="#FFFFFF" font-family="Calibri,Calibri_MSFontService,sans-serif" font-weight="400" font-size="16" transform="translate(302.551 264)">Process State</text><text fill="#FFFFFF" font-family="Calibri,Calibri_MSFontService,sans-serif" font-weight="400" font-size="16" transform="translate(310.217 283)">Interpreter</text><path d="M905.5 263.667C905.5 259.156 909.156 255.5 913.667 255.5L1032.33 255.5C1036.84 255.5 1040.5 259.156 1040.5 263.667L1040.5 296.333C1040.5 300.844 1036.84 304.5 1032.33 304.5L913.667 304.5C909.156 304.5 905.5 300.844 905.5 296.333Z" stroke="#2B4719" stroke-width="1.33333" stroke-miterlimit="8" fill="#70AD47" fill-rule="evenodd"/><text fill="#FFFFFF" font-family="Calibri,Calibri_MSFontService,sans-serif" font-weight="400" font-size="16" transform="translate(920.297 275)">Contextual Data</text><text fill="#FFFFFF" font-family="Calibri,Calibri_MSFontService,sans-serif" font-weight="400" font-size="16" transform="translate(949.631 294)">Builder</text><path d="M288.5 384.834C288.5 380.231 292.231 376.5 296.834 376.5L396.167 376.5C400.769 376.5 404.5 380.231 404.5 384.834L404.5 418.167C404.5 422.769 400.769 426.5 396.167 426.5L296.834 426.5C292.231 426.5 288.5 422.769 288.5 418.167Z" stroke="#2B4719" stroke-width="1.33333" stroke-miterlimit="8" fill="#70AD47" fill-rule="evenodd"/><text fill="#FFFFFF" font-family="Calibri,Calibri_MSFontService,sans-serif" font-weight="400" font-size="16" transform="translate(324.62 397)">Advice</text><text fill="#FFFFFF" font-family="Calibri,Calibri_MSFontService,sans-serif" font-weight="400" font-size="16" transform="translate(313.033 416)">Composer</text><path d="M288.5 314.667C288.5 310.156 292.156 306.5 296.667 306.5L396.333 306.5C400.844 306.5 404.5 310.156 404.5 314.667L404.5 347.333C404.5 351.844 400.844 355.5 396.333 355.5L296.667 355.5C292.156 355.5 288.5 351.844 288.5 347.333Z" stroke="#2B4719" stroke-width="1.33333" stroke-miterlimit="8" fill="#70AD47" fill-rule="evenodd"/><text fill="#FFFFFF" font-family="Calibri,Calibri_MSFontService,sans-serif" font-weight="400" font-size="16" transform="translate(313.967 336)">Scheduler</text><path d="M905.5 359.833C905.5 355.231 909.231 351.5 913.833 351.5L1032.17 351.5C1036.77 351.5 1040.5 355.231 1040.5 359.833L1040.5 393.167C1040.5 397.769 1036.77 401.5 1032.17 401.5L913.833 401.5C909.231 401.5 905.5 397.769 905.5 393.167Z" stroke="#2B4719" stroke-width="1.33333" stroke-miterlimit="8" fill="#70AD47" fill-rule="evenodd"/><text fill="#FFFFFF" font-family="Calibri,Calibri_MSFontService,sans-serif" font-weight="400" font-size="16" transform="translate(950.881 381)">Logger</text><path d="M496.5 453.667C496.5 449.156 500.156 445.5 504.667 445.5L598.333 445.5C602.844 445.5 606.5 449.156 606.5 453.667L606.5 486.333C606.5 490.844 602.844 494.5 598.333 494.5L504.667 494.5C500.156 494.5 496.5 490.844 496.5 486.333Z" stroke="#2B4719" stroke-width="1.33333" stroke-miterlimit="8" fill="#70AD47" fill-rule="evenodd"/><text fill="#FFFFFF" font-family="Calibri,Calibri_MSFontService,sans-serif" font-weight="400" font-size="16" transform="translate(533.74 465)">ADCS</text><text fill="#FFFFFF" font-family="Calibri,Calibri_MSFontService,sans-serif" font-weight="400" font-size="16" transform="translate(513.827 484)">Capabilities</text><path d="M637.5 453.667C637.5 449.156 641.156 445.5 645.667 445.5L740.333 445.5C744.844 445.5 748.5 449.156 748.5 453.667L748.5 486.333C748.5 490.844 744.844 494.5 740.333 494.5L645.667 494.5C641.156 494.5 637.5 490.844 637.5 486.333Z" stroke="#2B4719" stroke-width="1.33333" stroke-miterlimit="8" fill="#70AD47" fill-rule="evenodd"/><text fill="#FFFFFF" font-family="Calibri,Calibri_MSFontService,sans-serif" font-weight="400" font-size="16" transform="translate(674.901 465)">ADCS</text><text fill="#FFFFFF" font-family="Calibri,Calibri_MSFontService,sans-serif" font-weight="400" font-size="16" transform="translate(659.988 484)">Interfaces</text><path d="M477.5 531.667C477.5 527.156 481.156 523.5 485.667 523.5L580.333 523.5C584.844 523.5 588.5 527.156 588.5 531.667L588.5 564.333C588.5 568.844 584.844 572.5 580.333 572.5L485.667 572.5C481.156 572.5 477.5 568.844 477.5 564.333Z" stroke="#172C51" stroke-width="1.33333" stroke-miterlimit="8" fill="#4472C4" fill-rule="evenodd"/><text fill="#FFFFFF" font-family="Calibri,Calibri_MSFontService,sans-serif" font-weight="400" font-size="16" transform="translate(507.028 553)">ADCS#1</text><path d="M477.5 601.834C477.5 597.231 481.231 593.5 485.834 593.5L580.167 593.5C584.769 593.5 588.5 597.231 588.5 601.834L588.5 635.167C588.5 639.769 584.769 643.5 580.167 643.5L485.834 643.5C481.231 643.5 477.5 639.769 477.5 635.167Z" stroke="#172C51" stroke-width="1.33333" stroke-miterlimit="8" fill="#4472C4" fill-rule="evenodd"/><text fill="#FFFFFF" font-family="Calibri,Calibri_MSFontService,sans-serif" font-weight="400" font-size="16" transform="translate(511.695 623)">DCS#1</text><path d="M149.5 100.834C149.5 96.2311 153.231 92.5001 157.834 92.5001L251.167 92.5001C255.769 92.5001 259.5 96.2311 259.5 100.834L259.5 134.167C259.5 138.769 255.769 142.5 251.167 142.5L157.834 142.5C153.231 142.5 149.5 138.769 149.5 134.167Z" stroke="#434343" stroke-width="1.33333" stroke-miterlimit="8" fill="#A5A5A5" fill-rule="evenodd"/><text fill="#FFFFFF" font-family="Calibri,Calibri_MSFontService,sans-serif" font-weight="400" font-size="16" transform="translate(171.325 123)">Advisor#1</text><path d="M330.5 100.834C330.5 96.2311 334.231 92.5001 338.834 92.5001L432.167 92.5001C436.769 92.5001 440.5 96.2311 440.5 100.834L440.5 134.167C440.5 138.769 436.769 142.5 432.167 142.5L338.834 142.5C334.231 142.5 330.5 138.769 330.5 134.167Z" stroke="#434343" stroke-width="1.33333" stroke-miterlimit="8" fill="#A5A5A5" fill-rule="evenodd"/><text fill="#FFFFFF" font-family="Calibri,Calibri_MSFontService,sans-serif" font-weight="400" font-size="16" transform="translate(352.403 123)">Advisor#n</text><text font-family="Aptos,Aptos_MSFontService,sans-serif" font-weight="400" font-size="24" transform="translate(285.981 119)">…</text><path d="M468.5 100.834C468.5 96.2311 472.231 92.5001 476.834 92.5001L571.167 92.5001C575.769 92.5001 579.5 96.2311 579.5 100.834L579.5 134.167C579.5 138.769 575.769 142.5 571.167 142.5L476.834 142.5C472.231 142.5 468.5 138.769 468.5 134.167Z" stroke="#434343" stroke-width="1.33333" stroke-miterlimit="8" fill="#A5A5A5" fill-rule="evenodd"/><text fill="#FFFFFF" font-family="Calibri,Calibri_MSFontService,sans-serif" font-weight="400" font-size="16" transform="translate(500.38 123)">DAQ#1</text><path d="M636.5 100.834C636.5 96.2311 640.231 92.5001 644.834 92.5001L738.167 92.5001C742.769 92.5001 746.5 96.2311 746.5 100.834L746.5 134.167C746.5 138.769 742.769 142.5 738.167 142.5L644.834 142.5C640.231 142.5 636.5 138.769 636.5 134.167Z" stroke="#434343" stroke-width="1.33333" stroke-miterlimit="8" fill="#A5A5A5" fill-rule="evenodd"/><text fill="#FFFFFF" font-family="Calibri,Calibri_MSFontService,sans-serif" font-weight="400" font-size="16" transform="translate(665.789 123)">DAQ#m</text><text font-family="Aptos,Aptos_MSFontService,sans-serif" font-weight="400" font-size="24" transform="translate(601.026 119)">…</text><path d="M788.5 100.834C788.5 96.2311 792.231 92.5001 796.834 92.5001L890.167 92.5001C894.769 92.5001 898.5 96.2311 898.5 100.834L898.5 134.167C898.5 138.769 894.769 142.5 890.167 142.5L796.834 142.5C792.231 142.5 788.5 138.769 788.5 134.167Z" stroke="#434343" stroke-width="1.33333" stroke-miterlimit="8" fill="#A5A5A5" fill-rule="evenodd"/><text fill="#FFFFFF" font-family="Calibri,Calibri_MSFontService,sans-serif" font-weight="400" font-size="16" transform="translate(807.769 113)">Contextual</text><text fill="#FFFFFF" font-family="Calibri,Calibri_MSFontService,sans-serif" font-weight="400" font-size="16" transform="translate(819.769 132)">Data#1</text><path d="M957.5 100.834C957.5 96.2311 961.231 92.5001 965.834 92.5001L1059.17 92.5001C1063.77 92.5001 1067.5 96.2311 1067.5 100.834L1067.5 134.167C1067.5 138.769 1063.77 142.5 1059.17 142.5L965.834 142.5C961.231 142.5 957.5 138.769 957.5 134.167Z" stroke="#434343" stroke-width="1.33333" stroke-miterlimit="8" fill="#A5A5A5" fill-rule="evenodd"/><text fill="#FFFFFF" font-family="Calibri,Calibri_MSFontService,sans-serif" font-weight="400" font-size="16" transform="translate(976.531 113)">Contextual</text><text fill="#FFFFFF" font-family="Calibri,Calibri_MSFontService,sans-serif" font-weight="400" font-size="16" transform="translate(988.451 132)">Data#p</text><text font-family="Aptos,Aptos_MSFontService,sans-serif" font-weight="400" font-size="24" transform="translate(919.059 119)">…</text><path d="M477.5 670.667C477.5 666.156 481.156 662.5 485.667 662.5L580.333 662.5C584.844 662.5 588.5 666.156 588.5 670.667L588.5 703.333C588.5 707.844 584.844 711.5 580.333 711.5L485.667 711.5C481.156 711.5 477.5 707.844 477.5 703.333Z" stroke="#172C51" stroke-width="1.33333" stroke-miterlimit="8" fill="#4472C4" fill-rule="evenodd"/><text fill="#FFFFFF" font-family="Calibri,Calibri_MSFontService,sans-serif" font-weight="400" font-size="16" transform="translate(522.698 682)">Rig</text><text fill="#FFFFFF" font-family="Calibri,Calibri_MSFontService,sans-serif" font-weight="400" font-size="16" transform="translate(493.111 701)">Machines#1</text><path d="M663.5 531.834C663.5 527.231 667.231 523.5 671.834 523.5L765.167 523.5C769.769 523.5 773.5 527.231 773.5 531.834L773.5 565.167C773.5 569.769 769.769 573.5 765.167 573.5L671.834 573.5C667.231 573.5 663.5 569.769 663.5 565.167Z" stroke="#172C51" stroke-width="1.33333" stroke-miterlimit="8" fill="#4472C4" fill-rule="evenodd"/><text fill="#FFFFFF" font-family="Calibri,Calibri_MSFontService,sans-serif" font-weight="400" font-size="16" transform="translate(692.519 554)">ADCS#q</text><path d="M663.5 601.834C663.5 597.231 667.231 593.5 671.834 593.5L765.167 593.5C769.769 593.5 773.5 597.231 773.5 601.834L773.5 635.167C773.5 639.769 769.769 643.5 765.167 643.5L671.834 643.5C667.231 643.5 663.5 639.769 663.5 635.167Z" stroke="#172C51" stroke-width="1.33333" stroke-miterlimit="8" fill="#4472C4" fill-rule="evenodd"/><text fill="#FFFFFF" font-family="Calibri,Calibri_MSFontService,sans-serif" font-weight="400" font-size="16" transform="translate(697.185 623)">DCS#q</text><path d="M663.5 670.667C663.5 666.156 667.156 662.5 671.667 662.5L765.333 662.5C769.844 662.5 773.5 666.156 773.5 670.667L773.5 703.333C773.5 707.844 769.844 711.5 765.333 711.5L671.667 711.5C667.156 711.5 663.5 707.844 663.5 703.333Z" stroke="#172C51" stroke-width="1.33333" stroke-miterlimit="8" fill="#4472C4" fill-rule="evenodd"/><text fill="#FFFFFF" font-family="Calibri,Calibri_MSFontService,sans-serif" font-weight="400" font-size="16" transform="translate(708.269 682)">Rig</text><text fill="#FFFFFF" font-family="Calibri,Calibri_MSFontService,sans-serif" font-weight="400" font-size="16" transform="translate(678.602 701)">Machines#q</text><text font-family="Aptos,Aptos_MSFontService,sans-serif" font-weight="400" font-size="24" transform="translate(617.142 552)">…</text><path d="M6.66666-0.333333 70.8182-0.333333 70.8182 424.58 70.4848 424.247 134.303 424.247 134.303 424.913 70.1515 424.913 70.1515 0 70.4848 0.333333 6.66666 0.333333ZM8 4 0 0 8-4ZM132.969 420.58 140.969 424.58 132.969 428.58Z" transform="matrix(1.83697e-16 1 1 -1.83697e-16 204.5 142.5)"/><path d="M6.66666-0.333333 70.818-0.333333 70.818 243.419 70.4847 243.085 134.303 243.085 134.303 243.752 70.1513 243.752 70.1513 0 70.4847 0.333333 6.66666 0.333333ZM8 4 0 0 8-4ZM132.969 239.419 140.969 243.419 132.969 247.419Z" transform="matrix(1.83697e-16 1 1 -1.83697e-16 385.5 142.5)"/><path d="M6.66666-0.333333 70.8181-0.333333 70.8181 104.941 70.4847 104.608 134.303 104.608 134.303 105.275 70.1514 105.275 70.1514 0 70.4847 0.333333 6.66666 0.333333ZM8 4 0 0 8-4ZM132.969 100.941 140.969 104.941 132.969 108.941Z" transform="matrix(1.83697e-16 1 1 -1.83697e-16 523.5 142.5)"/><path d="M691.634 149.167 691.634 213.318 628.5 213.318 628.833 212.985 628.833 276.803 628.167 276.803 628.167 212.651 691.301 212.651 690.967 212.985 690.967 149.167ZM687.301 150.5 691.301 142.5 695.301 150.5ZM632.5 275.47 628.5 283.47 624.5 275.47Z"/><path d="M843.531 149.167 843.531 213.318 628.5 213.318 628.833 212.985 628.833 276.803 628.167 276.803 628.167 212.652 843.198 212.652 842.864 212.985 842.864 149.167ZM839.198 150.5 843.198 142.5 847.198 150.5ZM632.5 275.47 628.5 283.47 624.5 275.47Z"/><path d="M1012.29 149.167 1012.29 213.318 628.5 213.318 628.833 212.985 628.833 276.803 628.167 276.803 628.167 212.652 1011.96 212.652 1011.63 212.985 1011.63 149.167ZM1007.96 150.5 1011.96 142.5 1015.96 150.5ZM632.5 275.47 628.5 283.47 624.5 275.47Z"/><path d="M6.66666-0.333333 103.221-0.333333 103.221 51.5192 102.888 51.1858 199.109 51.1858 199.109 51.8525 102.554 51.8525 102.554 0 102.888 0.333333 6.66666 0.333333ZM8 4 0 0 8-4ZM197.776 47.5192 205.776 51.5192 197.776 55.5192Z" transform="matrix(-1 1.22465e-16 1.22465e-16 1 906.276 279.5)"/><path d="M6.66666-0.333333 76.7497-0.333333 76.7497 69.9781 76.4164 69.6447 146.166 69.6447 146.166 70.3114 76.083 70.3114 76.083 0 76.4164 0.333333 6.66666 0.333333ZM8 4 0 0 8-4ZM144.833 65.9781 152.833 69.9781 144.833 73.9781Z" transform="matrix(1 0 0 -1 404.5 401.478)"/><path d="M899.609 376.895 803.054 376.895 803.054 331.5 803.388 331.833 707.167 331.833 707.167 331.167 803.721 331.167 803.721 376.562 803.388 376.229 899.609 376.229ZM898.276 372.562 906.276 376.562 898.276 380.562ZM708.5 335.5 700.5 331.5 708.5 327.5Z"/><path d="M6.66667-0.333333 33.2717-0.333333 33.2717 63.9997 32.9383 63.6664 59.21 63.6664 59.21 64.333 32.605 64.333 32.605 0 32.9383 0.333333 6.66667 0.333333ZM8 4 0 0 8-4ZM57.8766 59.9997 65.8766 63.9997 57.8766 67.9997Z" transform="matrix(-1.83697e-16 -1 -1 1.83697e-16 692.5 445.377)"/><path d="M551.167 438.71 551.167 412.105 628.661 412.105 628.328 412.438 628.328 386.167 628.995 386.167 628.995 412.772 551.5 412.772 551.833 412.438 551.833 438.71ZM555.5 437.377 551.5 445.377 547.5 437.377ZM624.661 387.5 628.661 379.5 632.661 387.5Z"/><path d="M411.167 331.167 481.399 331.167 481.399 331.792 481.065 331.458 550.964 331.458 550.964 332.125 480.732 332.125 480.732 331.5 481.065 331.833 411.167 331.833ZM412.5 335.5 404.5 331.5 412.5 327.5ZM549.631 327.792 557.631 331.792 549.631 335.792Z"/><path d="M411.167 259.167 481.399 259.167 481.399 331.819 481.065 331.486 550.964 331.486 550.964 332.153 480.732 332.153 480.732 259.5 481.065 259.833 411.167 259.833ZM412.5 263.5 404.5 259.5 412.5 255.5ZM549.631 327.819 557.631 331.819 549.631 335.819Z"/><path d="M533.167 516.221 533.167 508.36 552.132 508.36 551.799 508.694 551.799 501.167 552.466 501.167 552.466 509.027 533.5 509.027 533.833 508.694 533.833 516.221ZM537.5 514.887 533.5 522.887 529.5 514.887ZM548.132 502.5 552.132 494.5 556.132 502.5Z"/><path d="M6.66667-0.333333 14.8603-0.333333 14.8603 25.781 14.527 25.4477 22.3873 25.4477 22.3873 26.1143 14.1936 26.1143 14.1936 0 14.527 0.333333 6.66667 0.333333ZM8 4 0 0 8-4ZM21.054 21.781 29.054 25.781 21.054 29.781Z" transform="matrix(-1.83697e-16 -1 -1 1.83697e-16 718.281 523.554)"/><path d="M532.167 587.788 532.167 583.644 533.833 583.644 533.5 583.977 533.5 580.167 534.167 580.167 534.167 584.311 532.5 584.311 532.833 583.977 532.833 587.788ZM536.5 586.454 532.5 594.454 528.5 586.454ZM529.833 581.5 533.833 573.5 537.833 581.5Z"/><path d="M532.167 655.517 532.167 652.509 533.833 652.509 533.5 652.842 533.5 650.167 534.167 650.167 534.167 653.175 532.5 653.175 532.833 652.842 532.833 655.517ZM536.5 654.184 532.5 662.184 528.5 654.184ZM529.833 651.5 533.833 643.5 537.833 651.5Z"/><path d="M718.167 588.121 718.167 584.311 719.833 584.311 719.5 584.644 719.5 581.167 720.167 581.167 720.167 584.977 718.5 584.977 718.833 584.644 718.833 588.121ZM722.5 586.788 718.5 594.788 714.5 586.788ZM715.833 582.5 719.833 574.5 723.833 582.5Z"/><path d="M718.167 655.517 718.167 652.509 719.833 652.509 719.5 652.842 719.5 650.167 720.167 650.167 720.167 653.175 718.5 653.175 718.833 652.842 718.833 655.517ZM722.5 654.184 718.5 662.184 714.5 654.184ZM715.833 651.5 719.833 643.5 723.833 651.5Z"/><path d="M6.66667-0.333333 14.8603-0.333333 14.8603 166.942 14.527 166.609 22.3873 166.609 22.3873 167.275 14.1936 167.275 14.1936 0 14.527 0.333333 6.66667 0.333333ZM8 4 0 0 8-4ZM21.054 162.942 29.054 166.942 21.054 170.942Z" transform="matrix(-1.83697e-16 -1 -1 1.83697e-16 718.442 523.554)"/><path d="M533.167 516.221 533.167 508.36 693.293 508.36 692.96 508.694 692.96 501.167 693.627 501.167 693.627 509.027 533.5 509.027 533.833 508.694 533.833 516.221ZM537.5 514.887 533.5 522.887 529.5 514.887ZM689.293 502.5 693.293 494.5 697.293 502.5Z"/><path d="M32 548.667C32 547.194 33.1939 546 34.6667 546L54.3333 546C55.8061 546 57 547.194 57 548.667L57 559.333C57 560.806 55.8061 562 54.3333 562L34.6667 562C33.1939 562 32 560.806 32 559.333Z" stroke="#042433" stroke-width="2" stroke-miterlimit="8" fill="#92D050" fill-rule="evenodd"/><text font-family="Aptos,Aptos_MSFontService,sans-serif" font-weight="400" font-size="15" transform="translate(76.2089 558)">DWIS</text><path d="M32 602.5C32 601.119 33.1193 600 34.5001 600L54.4999 600C55.8807 600 57 601.119 57 602.5L57 612.5C57 613.881 55.8807 615 54.4999 615L34.5001 615C33.1193 615 32 613.881 32 612.5Z" stroke="#042433" stroke-width="2" stroke-miterlimit="8" fill="#A6A6A6" fill-rule="evenodd"/><text font-family="Aptos,Aptos_MSFontService,sans-serif" font-weight="400" font-size="15" transform="translate(75.6923 595)">External Advisor, Data</text><text font-family="Aptos,Aptos_MSFontService,sans-serif" font-weight="400" font-size="15" transform="translate(215.026 595)">-</text><text font-family="Aptos,Aptos_MSFontService,sans-serif" font-weight="400" font-size="15" transform="translate(75.6923 612)">Acquisition System,</text><text font-family="Aptos,Aptos_MSFontService,sans-serif" font-weight="400" font-size="15" transform="translate(75.6923 630)">Contextual Data Sources</text><path d="M32 655.667C32 654.194 33.1939 653 34.6667 653L54.3333 653C55.8061 653 57 654.194 57 655.667L57 666.333C57 667.806 55.8061 669 54.3333 669L34.6667 669C33.1939 669 32 667.806 32 666.333Z" stroke="#042433" stroke-width="2" stroke-miterlimit="8" fill="#4472C1" fill-rule="evenodd"/><text font-family="Aptos,Aptos_MSFontService,sans-serif" font-weight="400" font-size="15" transform="translate(76.5915 667)">OEM</text></g></svg>